#!OML:ASF E:\Steps\Project 1\Capture day 1\Session 2\Subject.ASF
:FULLY-SPECIFIED
:DEGREES
376
root -1.18296 17.9836 20.9769 -154.123 -3.21751 178.611
lowerback -25.3992 -1.45902 -7.3572
upperback -0.393406 -0.121493 0.130255
thorax 13.86 -0.710205 4.30942
lowerneck -1.40705 -2.58719 -0.989763
upperneck 27.1471 -7.19806 1.63666
head 8.79213 -4.4015 -0.000648562
rclavicle -4.87022e-015 3.39922e-014
rhumerus -38.081 -22.6456 -74.4662
rradius 22.093
rwrist 5.89855
rhand -9.01687 -58.457
rfingers 7.12502
rthumb 16.9302 632.261
lclavicle -4.87022e-015 3.39922e-014
lhumerus -27.3897 -1.48591 85.063
lradius 24.5106
lwrist -1.13471
lhand -20.8961 -11.7761
lfingers 7.12502
lthumb 5.47466 18.1332
rfemur -24.1716 5.36773 19.7012
rtibia 6.61469
rfoot -17.1358 -1.71742
rtoes -16.363
lfemur -25.1128 -6.67354 -22.9572
ltibia 8.03197
lfoot -6.34963 -3.40761
ltoes -32.3371
377
root -1.1869 17.9844 20.9774 -154.111 -3.10932 178.692
lowerback -25.3671 -1.45221 -7.35955
upperback -0.44459 -0.128371 0.181304
thorax 13.782 -0.713267 4.36702
lowerneck -1.61046 -2.63301 -1.1951
upperneck 27.6162 -7.39456 1.73917
head 9.01072 -4.52339 0.0314829
rclavicle -1.73937e-015 -1.8487e-014
rhumerus -38.2676 -22.5129 -74.4393
rradius 22.5162
rwrist 5.85163
rhand -8.88704 -58.2959
rfingers 7.12502
rthumb 17.0552 632.433
lclavicle -1.73937e-015 -1.8487e-014
lhumerus -27.4141 -1.28406 85.0429
lradius 24.4962
lwrist -1.0182
lhand -21.3452 -12.3669
lfingers 7.12502
lthumb 5.04103 17.5531
rfemur -24.5122 5.44138 19.7516
rtibia 7.20205
rfoot -17.4054 -1.64598
rtoes -16.164
lfemur -25.2124 -6.83783 -22.8447
ltibia 8.20175
lfoot -6.40233 -3.07008
ltoes -32.4103
378
root -1.18949 17.9864 20.9767 -154.114 -3.06399 178.78
lowerback -25.324 -1.46324 -7.30362
upperback -0.458238 -0.167211 0.206457
thorax 13.7467 -0.726432 4.34953
lowerneck -1.33612 -2.57621 -1.05558
upperneck 27.2149 -7.21467 1.63181
head 8.80547 -4.42751 0.0068192
rclavicle 3.37934e-015 -1.49089e-014
rhumerus -38.2664 -22.4463 -74.4774
rradius 22.7207
rwrist 5.94538
rhand -8.51629 -58.317
rfingers 7.12502
rthumb 17.412 632.443
lclavicle 3.37934e-015 -1.49089e-014
lhumerus -27.426 -1.37785 85.0667
lradius 24.5678
lwrist -0.41248
lhand -21.8579 -12.7242
lfingers 7.12502
lthumb 4.546 17.207
rfemur -24.7993 5.27416 19.8828
rtibia 7.72723
rfoot -17.6157 -1.32558
rtoes -15.717
lfemur -25.2735 -6.89735 -22.7338
ltibia 8.31826
lfoot -6.43711 -2.84811
ltoes -32.8724
379
root -1.18964 17.9877 20.9753 -154.132 -2.9423 178.877
lowerback -25.2624 -1.42124 -7.25433
upperback -0.472791 -0.128107 0.167414
thorax 13.6895 -0.70161 4.28973
lowerneck -1.57947 -2.6397 -1.02963
upperneck 27.641 -7.4453 1.73995
head 9.00957 -4.5379 -0.000834647
rclavicle 1.08835e-014 -1.25234e-014
rhumerus -38.2486 -22.5833 -74.5088
rradius 22.7424
rwrist 5.89308
rhand -8.43982 -58.0588
rfingers 7.12502
rthumb 17.4856 632.708
lclavicle 1.08835e-014 -1.25234e-014
lhumerus -27.5285 -1.7434 85.0427
lradius 24.8047
lwrist 0.0468937
lhand -22.4687 -12.5215
lfingers 7.12502
lthumb 3.95614 17.4216
rfemur -25.03 5.19963 20.0061
rtibia 8.16547
rfoot -17.7266 -1.10284
rtoes -15.3462
lfemur -25.2831 -6.89553 -22.6269
ltibia 8.32802
lfoot -6.49622 -2.594
ltoes -33.5824
